<svg xmlns="http://www.w3.org/2000/svg" class="menu-logo-svg" width="172" height="24" viewBox="0 0 172 24" fill="none" style="width: 172px; height: 24px;"><path d="M159.233 23.4001V20.6401H166.481C167.441 20.6401 167.921 20.1521 167.921 19.1761V18.0001H160.505C159.097 18.0001 158.065 17.6481 157.409 16.9441C156.769 16.2401 156.449 15.3281 156.449 14.2081V5.64014H159.929V13.8001C159.929 14.7601 160.409 15.2401 161.369 15.2401H167.801V5.64014H171.401V19.6081C171.401 20.7441 171.073 21.6561 170.417 22.3441C169.761 23.0481 168.737 23.4001 167.345 23.4001H159.233Z" fill="white"></path><path d="M143.941 18.12C141.797 18.12 140.125 17.592 138.925 16.536C137.725 15.464 137.125 13.896 137.125 11.832C137.125 9.75202 137.725 8.18402 138.925 7.12802C140.125 6.05602 141.797 5.52002 143.941 5.52002H149.941C151.349 5.52002 152.421 5.85602 153.157 6.52802C153.909 7.18402 154.285 8.12802 154.285 9.36002C154.285 11.872 152.837 13.128 149.941 13.128H140.869C141.205 14.616 142.229 15.36 143.941 15.36H153.661V18.12H143.941ZM143.941 8.28002C142.293 8.28002 141.277 8.97602 140.893 10.368H149.773C150.093 10.368 150.341 10.272 150.517 10.08C150.709 9.88802 150.805 9.62402 150.805 9.28802C150.805 8.61602 150.461 8.28002 149.773 8.28002H143.941Z" fill="white"></path><path d="M120.262 18.0001V5.64014H131.038C132.446 5.64014 133.47 5.99214 134.11 6.69614C134.766 7.38414 135.094 8.29614 135.094 9.43214V18.0001H131.614V9.84014C131.614 8.88014 131.134 8.40014 130.174 8.40014H123.742V18.0001H120.262Z" fill="white"></path><path d="M106.839 18.12C104.695 18.12 103.023 17.592 101.823 16.536C100.623 15.464 100.023 13.896 100.023 11.832C100.023 9.75202 100.623 8.18402 101.823 7.12802C103.023 6.05602 104.695 5.52002 106.839 5.52002H111.279C113.423 5.52002 115.095 6.05602 116.295 7.12802C117.495 8.18402 118.095 9.75202 118.095 11.832C118.095 13.896 117.495 15.464 116.295 16.536C115.095 17.592 113.423 18.12 111.279 18.12H106.839ZM106.839 15.36H111.279C112.319 15.36 113.111 15.072 113.655 14.496C114.215 13.92 114.495 13.032 114.495 11.832C114.495 10.616 114.215 9.72002 113.655 9.14402C113.111 8.56802 112.319 8.28002 111.279 8.28002H106.839C105.799 8.28002 104.999 8.56802 104.439 9.14402C103.895 9.72002 103.623 10.616 103.623 11.832C103.623 13.032 103.895 13.92 104.439 14.496C104.999 15.072 105.799 15.36 106.839 15.36Z" fill="white"></path><path d="M77.8867 18.0001V5.64014H93.8947C95.3027 5.64014 96.3347 5.99214 96.9907 6.69614C97.6467 7.38414 97.9747 8.29614 97.9747 9.43214V18.0001H94.4947V9.86414C94.4947 8.88814 93.9987 8.40014 93.0067 8.40014H89.6707V18.0001H86.1907V8.40014H81.3667V18.0001H77.8867Z" fill="white"></path><path d="M71.2305 18.0001V14.5681H75.0705V18.0001H71.2305Z" fill="white"></path><path d="M52.4766 18.0001L57.1326 11.8321L52.4766 5.66406H56.5566L60.1326 10.4401H61.8846L65.4846 5.66406H69.5406L64.9086 11.8321L69.5406 18.0001H65.4846L61.8606 13.2001H60.1326L56.5566 18.0001H52.4766Z" fill="white"></path><path d="M50.9147 18.0001H47.4347V0.840088H50.9147V18.0001ZM50.3148 18.0001H42.0347C39.8907 18.0001 38.2187 17.4721 37.0187 16.4161C35.8187 15.3601 35.2188 13.8321 35.2188 11.8321C35.2188 9.81609 35.8187 8.28009 37.0187 7.22409C38.2187 6.16809 39.8907 5.64009 42.0347 5.64009H50.0747V8.40009H42.0347C40.9947 8.40009 40.1948 8.68809 39.6348 9.26409C39.0908 9.82409 38.8187 10.6801 38.8187 11.8321C38.8187 12.9681 39.0908 13.8241 39.6348 14.4001C40.1948 14.9601 40.9947 15.2401 42.0347 15.2401H50.3148V18.0001Z" fill="white"></path><path d="M17.4068 18.12V15.36H29.1668C29.8388 15.36 30.1748 14.984 30.1748 14.232C30.1748 13.496 29.8388 13.128 29.1668 13.128H21.5588C20.1348 13.128 19.0548 12.808 18.3188 12.168C17.5828 11.512 17.2148 10.576 17.2148 9.36002C17.2148 8.12802 17.5828 7.18402 18.3188 6.52802C19.0708 5.85602 20.1508 5.52002 21.5588 5.52002H32.5028V8.28002H21.7268C21.0388 8.28002 20.6948 8.61602 20.6948 9.28802C20.6948 9.62402 20.7908 9.88802 20.9828 10.08C21.1748 10.272 21.4228 10.368 21.7268 10.368H29.7908C31.0388 10.368 31.9908 10.696 32.6468 11.352C33.3188 11.992 33.6548 12.928 33.6548 14.16C33.6548 15.408 33.3188 16.384 32.6468 17.088C31.9748 17.776 31.0228 18.12 29.7908 18.12H17.4068Z" fill="white"></path><path d="M4.52475 18.0001C3.11675 18.0001 2.08475 17.6481 1.42875 16.9441C0.78875 16.2401 0.46875 15.3281 0.46875 14.2081V5.64014H3.94875V13.8001C3.94875 14.7601 4.42875 15.2401 5.38875 15.2401H10.3808C11.3407 15.2401 11.8208 14.7601 11.8208 13.8001V5.64014H15.3008V14.2081C15.3008 15.3281 14.9728 16.2401 14.3168 16.9441C13.6768 17.6481 12.6528 18.0001 11.2448 18.0001H4.52475Z" fill="white"></path></svg>