<svg xmlns="http://www.w3.org/2000/svg" width="18" height="18" viewBox="0 0 18 18" fill="none"><g clip-path="url(#clip0_99_915)"><path d="M17.2965 4.95907C17.483 4.95907 17.6618 4.885 17.7937 4.75316C17.9256 4.62132 17.9996 4.4425 17.9996 4.25605V3.51789C17.9985 2.58523 17.6275 1.69109 16.9679 1.0316C16.3083 0.372108 15.414 0.00111629 14.4812 0H3.51527C3.48812 0.000157919 3.461 0.00191884 3.43406 0.00527294C2.5008 0.038635 1.61728 0.434304 0.971012 1.1083C0.647706 1.44343 0.395253 1.84025 0.228722 2.27508C0.0621921 2.70991 -0.0149984 3.17384 0.00175602 3.63916C0.00175602 3.65709 -0.000355418 3.67431 -0.000355418 3.69329V13.7791C0.000854168 14.8981 0.445969 15.971 1.23733 16.7623C2.02869 17.5536 3.10166 17.9987 4.22086 18H14.4812C15.414 17.999 16.3084 17.628 16.968 16.9685C17.6276 16.309 17.9986 15.4148 17.9996 14.4821V9.14482C17.9986 8.21213 17.6276 7.31794 16.968 6.65843C16.3084 5.99892 15.414 5.62796 14.4812 5.62693H3.51527C2.97293 5.62787 2.45114 5.41957 2.05859 5.04541C1.66604 4.67125 1.43299 4.1601 1.40801 3.61842C1.39459 3.33586 1.43913 3.05354 1.53889 2.78883C1.63865 2.52412 1.79151 2.28262 1.98808 2.07917C2.19073 1.86778 2.43395 1.69946 2.70319 1.58428C2.97243 1.4691 3.26215 1.40943 3.555 1.40884C3.57293 1.40884 3.59015 1.40884 3.60808 1.40603H14.4812C15.0412 1.40668 15.5781 1.62939 15.974 2.0253C16.37 2.42121 16.5927 2.95799 16.5934 3.51789V4.25605C16.5934 4.4425 16.6675 4.62132 16.7993 4.75316C16.9312 4.885 17.11 4.95907 17.2965 4.95907ZM3.51527 7.03296H14.4812C15.0412 7.03361 15.5781 7.25632 15.974 7.65223C16.37 8.04814 16.5927 8.58492 16.5934 9.14482V14.4821C16.5927 15.042 16.37 15.5788 15.974 15.9747C15.5781 16.3706 15.0412 16.5933 14.4812 16.594H4.22086C3.47448 16.5931 2.75892 16.2963 2.23118 15.7686C1.70345 15.2408 1.40664 14.5254 1.40589 13.7791V6.33276C2.01445 6.78873 2.7548 7.03449 3.51527 7.03296Z" fill="white"></path><path d="M14.3086 12.6921C14.794 12.6921 15.1875 12.2987 15.1875 11.8133C15.1875 11.328 14.794 10.9346 14.3086 10.9346C13.8232 10.9346 13.4297 11.328 13.4297 11.8133C13.4297 12.2987 13.8232 12.6921 14.3086 12.6921Z" fill="white"></path><path d="M3.51562 2.81494C3.32914 2.81494 3.1503 2.88901 3.01844 3.02085C2.88658 3.15269 2.8125 3.33151 2.8125 3.51796C2.8125 3.70441 2.88658 3.88322 3.01844 4.01506C3.1503 4.1469 3.32914 4.22097 3.51562 4.22097H14.4844C14.6709 4.22097 14.8497 4.1469 14.9816 4.01506C15.1134 3.88322 15.1875 3.70441 15.1875 3.51796C15.1875 3.33151 15.1134 3.15269 14.9816 3.02085C14.8497 2.88901 14.6709 2.81494 14.4844 2.81494H3.51562Z" fill="white"></path></g><defs><clipPath id="clip0_99_915"><rect width="18" height="18" fill="white"></rect></clipPath></defs></svg>