<svg width="24" height="24" viewBox="0 0 24 24" fill="none" xmlns="http://www.w3.org/2000/svg">
<rect opacity="0.01" width="24" height="24" fill="black"/>
<path d="M23.9783 11.9957C23.9783 18.5902 18.6325 23.936 12.038 23.936C5.44345 23.936 0.0976562 18.5902 0.0976562 11.9957C0.0976562 5.40121 5.44345 0.0554199 12.038 0.0554199C18.6325 0.0554199 23.9783 5.40121 23.9783 11.9957Z" fill="#1F7A55"/>
<g clip-path="url(#clip0_2335_27280)">
<path d="M18.72 5.00128C17.1282 5.00128 15.5791 5.00319 14.0294 5C13.6447 4.99936 13.3467 5.14419 13.1158 5.45426C12.4318 6.37362 11.7409 7.28724 11.0525 8.20341C10.7316 8.63151 10.4107 9.05897 10.0853 9.49282C10.0508 9.44943 10.024 9.41689 9.9985 9.38308C9.36177 8.53454 8.71994 7.68982 8.09087 6.83617C7.88097 6.55162 7.62641 6.41573 7.26849 6.41956C6.24386 6.43168 5.21922 6.42402 4.19523 6.42402H4C4.05168 6.4942 4.08422 6.54014 4.11803 6.58544C5.44699 8.34696 6.77531 10.1091 8.1081 11.8675C8.1853 11.9702 8.18913 12.0321 8.11001 12.1373C6.78169 13.8995 5.45784 15.6655 4.13334 17.4302C4.10336 17.471 4.07528 17.5131 4.02999 17.5776H4.22521C5.24921 17.5776 6.27384 17.5731 7.29784 17.5808C7.62322 17.5827 7.8663 17.4627 8.05897 17.2031C8.70144 16.3386 9.34965 15.4792 9.99595 14.6179C10.0227 14.5828 10.0534 14.5503 10.0872 14.5101C10.1223 14.5547 10.1491 14.5873 10.1746 14.6204C11.1514 15.9232 12.1307 17.2248 13.103 18.5301C13.341 18.8491 13.6434 19.0022 14.0409 19.001C15.5006 18.9959 16.9604 18.9991 18.4201 18.9991H18.6881C16.9253 16.6506 15.1829 14.3295 13.4373 12.0046C15.1969 9.67273 16.9502 7.34849 18.72 5.00128ZM16.2516 17.7269C16.2669 17.7473 16.2828 17.7671 16.3205 17.8149C15.5657 17.8149 14.8448 17.8168 14.1238 17.8098C14.0709 17.8092 14.0058 17.7492 13.9682 17.7001C13.1477 16.6116 12.3298 15.5213 11.5118 14.431C10.93 13.6545 10.3481 12.8774 9.76627 12.1003C9.74139 12.0665 9.71778 12.0321 9.69035 11.9925C10.1287 11.4087 10.5638 10.8275 10.9995 10.2469C11.9865 8.93265 12.9754 7.619 13.9599 6.30217C14.0281 6.21093 14.097 6.17839 14.2093 6.17903C14.9086 6.18413 15.6078 6.18158 16.3326 6.18158C16.2962 6.23709 16.2739 6.27601 16.2471 6.31174C14.8518 8.16194 13.4571 10.0134 12.058 11.8611C11.9782 11.9664 11.9725 12.0321 12.0554 12.1424C13.4571 14.0016 14.8537 15.8645 16.2516 17.7269Z" fill="white"/>
</g>
<defs>
<clipPath id="clip0_2335_27280">
<rect width="14.72" height="14.001" fill="white" transform="translate(4 5)"/>
</clipPath>
</defs>
</svg>
